<svg xmlns="http://www.w3.org/2000/svg" viewBox="0 0 32 32" role="img" aria-label="WhatsApp logo">
  <circle cx="16" cy="16" r="16" fill="#25D366"/>
  <path fill="#fff" d="M16.04 5.55c-5.74 0-10.41 4.63-10.41 10.32 0 1.94.55 3.82 1.59 5.45L5.53 27.5l6.36-1.66a10.54 10.54 0 0 0 4.15 0.85c5.74 0 10.41-4.63 10.41-10.32S21.78 5.55 16.04 5.55Zm0 19.38c-1.42 0-2.82-.33-4.08-.98l-.29-.15-3.78.98 1.01-3.65-.19-.3a8.95 8.95 0 0 1-1.33-4.67c0-4.72 3.88-8.56 8.65-8.56s8.65 3.84 8.65 8.56-3.87 8.77-8.64 8.77Zm4.73-6.56c-.26-.13-1.54-.76-1.78-.85-.24-.09-.41-.13-.59.13-.17.26-.68.85-.83 1.03-.15.17-.31.19-.57.06-.26-.13-1.1-.4-2.09-1.29-.77-.69-1.29-1.54-1.44-1.8-.15-.26-.02-.4.12-.53.12-.12.26-.31.39-.46.13-.15.17-.26.26-.44.09-.17.04-.33-.02-.46-.07-.13-.59-1.42-.81-1.95-.21-.51-.43-.44-.59-.45h-.5c-.17 0-.46.06-.7.33-.24.26-.92.9-.92 2.18 0 1.29.94 2.53 1.07 2.71.13.17 1.85 2.8 4.48 3.92.63.27 1.12.43 1.5.55.63.2 1.2.17 1.65.1.5-.08 1.54-.63 1.76-1.24.22-.61.22-1.13.15-1.24-.06-.11-.23-.17-.51-.31Z"/>
</svg>
